<svg version="1.1" viewBox="0.0 0.0 474.28608923884514 100.0" fill="none" stroke="none" stroke-linecap="square" stroke-miterlimit="10" xmlns:xlink="http://www.w3.org/1999/xlink" xmlns="http://www.w3.org/2000/svg"><clipPath id="p.0"><path d="m0 0l474.2861 0l0 100.0l-474.2861 0l0 -100.0z" clip-rule="nonzero"/></clipPath><g clip-path="url(#p.0)"><path fill="#000000" fill-opacity="0.0" d="m0 0l474.2861 0l0 100.0l-474.2861 0z" fill-rule="evenodd"/><path fill="#0000ff" fill-opacity="0.5" d="m6.671245 39.929306l0 6.224262l7.997272 0l0 18.114277l7.8187876 0l0 -18.114277l7.9569683 0l0 -6.224262z" fill-rule="evenodd"/><path fill="#0000ff" fill-opacity="0.5" d="m33.77195 38.62227l0 4.7732773l7.035755 0l0 -4.7732773zm0 6.9670296l0 18.678547l7.035755 0l0 -18.678547z" fill-rule="evenodd"/><path fill="#0000ff" fill-opacity="0.5" d="m58.0341 45.163216c-1.2935295 0 -2.52565 0.289814 -3.6963615 0.8694382c-1.1668663 0.5757866 -2.103428 1.35886 -2.8096962 2.3492126l-0.46060562 -2.7925682l-5.7633324 0l0 18.678547l7.035755 0l0 -10.968754c0 -0.8252945 0.25909042 -1.5200806 0.7772713 -2.0843506c0.52201843 -0.5681114 1.1956558 -0.8521652 2.0209122 -0.8521652c0.70625687 0 1.2532272 0.24182892 1.6409073 0.72549057c0.39151382 0.48366165 0.58727264 1.1266251 0.58727264 1.9288902l0 11.250889l7.035755 0l0 -10.968754c0 -0.8252945 0.25909424 -1.5200806 0.7772751 -2.0843506c0.52201843 -0.5681114 1.1956482 -0.8521652 2.0209045 -0.8521652c0.7062607 0 1.2532349 0.24182892 1.6409149 0.72549057c0.39151 0.48366165 0.58727264 1.1266251 0.58727264 1.9288902l0 11.250889l7.0415115 0l0 -12.097298c0 -2.2417297 -0.5316162 -3.9690933 -1.5948486 -5.182087c-1.0593948 -1.2168312 -2.650406 -1.8252449 -4.7730255 -1.8252449c-1.2513199 0 -2.4488983 0.289814 -3.5927277 0.8694382c-1.143837 0.5757866 -2.0803986 1.35886 -2.8097 2.3492126c-0.9672737 -2.1457672 -2.8557587 -3.2186508 -5.665455 -3.2186508z" fill-rule="evenodd"/><path fill="#0000ff" fill-opacity="0.5" d="m90.616196 49.660114c0.99030304 0 1.7618179 0.282135 2.3145447 0.84640884c0.55656433 0.56427 0.8348465 1.3300667 0.8348465 2.29739l-6.8630295 0c0.26101685 -2.0958633 1.4988937 -3.1437988 3.7136383 -3.1437988zm-0.28211975 -4.4968987c-3.2779846 0 -5.849701 0.8252945 -7.715149 2.4758873c-1.8616257 1.650589 -2.792427 4.080414 -2.792427 7.289467c0 3.2781525 0.95575714 5.7252464 2.8672714 7.3412895c1.9115143 1.6160431 4.6003036 2.4240646 8.06636 2.4240646c3.3010178 0 5.8113174 -0.63720703 7.5309143 -1.9116135c1.7234344 -1.2744102 2.5851517 -3.0439987 2.5851517 -5.3087616l-6.8284836 0c0 0.8252983 -0.2782898 1.4855347 -0.8348541 1.9807091c-0.55272675 0.49517822 -1.4182816 0.74276733 -2.5966644 0.74276733c-1.2973785 0 -2.2473755 -0.34163666 -2.8499985 -1.0249023c-0.5987854 -0.6832657 -0.89818573 -1.6966515 -0.89818573 -3.0401573l14.008186 0l0 -1.2033958c0 -3.3011818 -0.9020157 -5.754036 -2.7060623 -7.3585625c-1.8040466 -1.6045303 -4.4160614 -2.4067917 -7.8360596 -2.4067917z" fill-rule="evenodd"/><path fill="#0000ff" fill-opacity="0.5" d="m119.30618 39.929306l-1.5200043 5.659992l-2.9018173 0l0 4.7732773l2.6196976 0l0 9.339272c0 1.8194885 0.55848694 3.1073341 1.6754532 3.863533c1.1208038 0.7523613 2.71949 1.1285439 4.7960663 1.1285439c0.6601944 0 1.4374695 -0.059501648 2.3318176 -0.17849731c0.8981781 -0.11898804 1.6293945 -0.27253723 2.1936264 -0.4606247l0 -4.1399117l-1.9805984 0c-0.75231934 0 -1.2705002 -0.19384766 -1.5545425 -0.5815468c-0.28405 -0.38769913 -0.42606354 -1.0076294 -0.42606354 -1.8597946l0 -7.1109734l3.9612045 0l0 -4.7732773l-3.9612045 0l0 -5.659992z" fill-rule="evenodd"/><path fill="#0000ff" fill-opacity="0.5" d="m141.4149 49.94225c2.3337402 0 3.5006104 1.3319893 3.5006104 3.9959679l0 2.015255c0 2.6409416 -1.1668701 3.9614182 -3.5006104 3.9614182c-2.3107147 0 -3.4660645 -1.3204765 -3.4660645 -3.9614182l0 -2.015255c0 -2.6639786 1.1553497 -3.9959679 3.4660645 -3.9959679zm0 -4.7790337c-3.2779846 0 -5.849701 0.8252945 -7.715149 2.4758873c-1.861618 1.650589 -2.7924347 4.080414 -2.7924347 7.289467c0 3.2090569 0.93081665 5.638878 2.7924347 7.2894707c1.865448 1.650589 4.4371643 2.4758835 7.715149 2.4758835c3.2779694 0 5.853531 -0.8310547 7.7266693 -2.4931602c1.8769684 -1.6659431 2.815445 -4.090008 2.815445 -7.272194c0 -3.1821861 -0.93847656 -5.604332 -2.815445 -7.2664375c-1.8731384 -1.6659431 -4.4486847 -2.4989166 -7.7266693 -2.4989166z" fill-rule="evenodd"/><path fill="#0000ff" fill-opacity="0.5" d="m174.73973 38.196186c-2.1955566 0 -3.8825226 0.5009346 -5.060913 1.5028076c-1.1783752 1.0018692 -1.7675629 2.7061996 -1.7675629 5.1129913l0 0.77731323l-2.6197052 0l0 4.7732773l2.6197052 0l0 13.90527l7.0357513 0l0 -13.90527l3.6100006 0l0 -4.7732773l-3.6100006 0l0 -0.74276733c0 -0.6832657 0.14202881 -1.1669273 0.4260559 -1.450985c0.28404236 -0.2840538 0.8041382 -0.4260826 1.5603027 -0.4260826l1.623642 0l0 -4.1399117c-0.4721222 -0.16505814 -1.0977783 -0.31092453 -1.8769684 -0.43759537c-0.7753601 -0.13051224 -1.4221191 -0.19577026 -1.9403076 -0.19577026z" fill-rule="evenodd"/><path fill="#0000ff" fill-opacity="0.5" d="m189.94875 49.94225c2.3337402 0 3.5006104 1.3319893 3.5006104 3.9959679l0 2.015255c0 2.6409416 -1.1668701 3.9614182 -3.5006104 3.9614182c-2.3106995 0 -3.4660492 -1.3204765 -3.4660492 -3.9614182l0 -2.015255c0 -2.6639786 1.1553497 -3.9959679 3.4660492 -3.9959679zm0 -4.7790337c-3.2779694 0 -5.8496857 0.8252945 -7.715149 2.4758873c-1.861618 1.650589 -2.7924194 4.080414 -2.7924194 7.289467c0 3.2090569 0.9308014 5.638878 2.7924194 7.2894707c1.8654633 1.650589 4.4371796 2.4758835 7.715149 2.4758835c3.2779846 0 5.853546 -0.8310547 7.7266693 -2.4931602c1.8769684 -1.6659431 2.8154602 -4.090008 2.8154602 -7.272194c0 -3.1821861 -0.9384918 -5.604332 -2.8154602 -7.2664375c-1.8731384 -1.6659431 -4.4486847 -2.4989166 -7.7266693 -2.4989166z" fill-rule="evenodd"/><path fill="#0000ff" fill-opacity="0.5" d="m213.54355 45.163216c-3.2779694 0 -5.8496857 0.8252945 -7.715149 2.4758873c-1.861618 1.650589 -2.7924194 4.080414 -2.7924194 7.289467c0 3.2090569 0.9308014 5.638878 2.7924194 7.2894707c1.8654633 1.650589 4.4371796 2.4758835 7.715149 2.4758835c3.0668793 0 5.5483856 -0.66023254 7.4445496 -1.9807091c1.8999939 -1.3204727 2.8499908 -3.3376503 2.8499908 -6.051525l-6.546356 0c0 2.1688004 -1.201416 3.2532005 -3.604248 3.2532005c-2.406662 0 -3.6100006 -1.3204765 -3.6100006 -3.9614182l0 -2.015255c0 -2.6639786 1.155365 -3.9959679 3.4660645 -3.9959679c2.3107147 0 3.4660645 1.0613708 3.4660645 3.184105l6.828476 0c0 -2.6908455 -0.94999695 -4.6907463 -2.8499908 -5.9997025c-1.896164 -1.3089561 -4.3776703 -1.9634361 -7.4445496 -1.9634361z" fill-rule="evenodd"/><path fill="#0000ff" fill-opacity="0.5" d="m227.40807 45.5893l0 12.097294c0 2.2647629 0.54312134 3.9998055 1.6293945 5.2051163c1.0862579 1.201477 2.7137299 1.8022156 4.882416 1.8022156c1.320404 0 2.5755615 -0.2878952 3.7654572 -0.8636818c1.1898956 -0.5796242 2.151413 -1.378048 2.884552 -2.395275l0.4606018 2.832878l5.763336 0l0 -18.678547l-7.0357666 0l0 10.96875c0 0.8252945 -0.27252197 1.5219994 -0.8175659 2.090107c-0.541214 0.56427383 -1.2474823 0.84640884 -2.1187897 0.84640884c-0.75616455 0 -1.3415222 -0.24182892 -1.7560577 -0.72549057c-0.41070557 -0.48366165 -0.6160736 -1.1266251 -0.6160736 -1.9288902l0 -11.250885z" fill-rule="evenodd"/><path fill="#0000ff" fill-opacity="0.5" d="m259.9559 45.163216c-2.782837 0 -5.0417175 0.48366165 -6.776657 1.450985c-1.7311096 0.9673233 -2.5966797 2.594883 -2.5966797 4.882675c0 1.416439 0.39920044 2.520031 1.197586 3.3107796c0.8022156 0.7869072 1.7407074 1.3454208 2.815445 1.6755409c1.0747528 0.3301201 2.4488983 0.63720703 4.1224213 0.92126083c1.3894958 0.23799133 2.391327 0.4625473 3.0054626 0.6736717c0.61413574 0.2111206 0.9212036 0.55275345 0.9212036 1.0248985c0 0.92126083 -0.9787903 1.3818893 -2.9363403 1.3818893c-0.7331543 0 -1.4240417 -0.15929794 -2.072754 -0.47790146c-0.64868164 -0.31860352 -0.9845276 -0.87903595 -1.0075684 -1.6813011l0 -0.14394379l-6.5406036 0c0 1.4855309 0.45869446 2.711956 1.3760681 3.6792793c0.9212036 0.9673233 2.1130219 1.6813011 3.5754547 2.1419334c1.4624329 0.4606247 3.0188904 0.69094086 4.669403 0.69094086c2.874939 0 5.2029114 -0.506691 6.983917 -1.5200768c1.7810059 -1.0172234 2.6715088 -2.7157974 2.6715088 -5.0957184c0 -1.4625015 -0.41259766 -2.6006393 -1.237854 -3.414421c-0.82525635 -0.8137779 -1.7925415 -1.3799706 -2.901825 -1.6985741c-1.1092834 -0.3185997 -2.4891968 -0.59497833 -4.1397095 -0.8291321c-1.3434143 -0.214962 -2.3106995 -0.41648483 -2.9017944 -0.6045761c-0.5872803 -0.18809128 -0.8809204 -0.5066948 -0.8809204 -0.95580673c0 -0.80226517 0.8482666 -1.2033958 2.5448303 -1.2033958c0.6371765 0 1.1687927 0.11899567 1.5948486 0.356987c0.61416626 0.2840538 0.92123413 0.76771545 0.92123413 1.450985l6.5405884 0c0 -2.0536423 -0.86746216 -3.5698814 -2.602417 -4.5487213c-1.7311096 -0.9788399 -3.8460693 -1.4682579 -6.3448486 -1.4682579z" fill-rule="evenodd"/><path fill="#0000ff" fill-opacity="0.5" d="m294.12674 49.94225c2.3337402 0 3.5006104 1.3319893 3.5006104 3.9959679l0 2.015255c0 2.6409416 -1.1668701 3.9614182 -3.5006104 3.9614182c-2.3106995 0 -3.4660645 -1.3204765 -3.4660645 -3.9614182l0 -2.015255c0 -2.6639786 1.155365 -3.9959679 3.4660645 -3.9959679zm0 -4.7790337c-3.2779846 0 -5.849701 0.8252945 -7.715149 2.4758873c-1.8616333 1.650589 -2.7924194 4.080414 -2.7924194 7.289467c0 3.2090569 0.93078613 5.638878 2.7924194 7.2894707c1.865448 1.650589 4.4371643 2.4758835 7.715149 2.4758835c3.2779846 0 5.8535156 -0.8310547 7.726654 -2.4931602c1.8769836 -1.6659431 2.8154602 -4.090008 2.8154602 -7.272194c0 -3.1821861 -0.93847656 -5.604332 -2.8154602 -7.2664375c-1.8731384 -1.6659431 -4.4486694 -2.4989166 -7.726654 -2.4989166z" fill-rule="evenodd"/><path fill="#0000ff" fill-opacity="0.5" d="m320.94003 45.163216c-1.320404 0 -2.5774841 0.29557037 -3.7712097 0.8867111c-1.1899109 0.58730316 -2.1495056 1.376133 -2.8787842 2.3664856l-0.4606018 -2.827114l-5.763336 0l0 18.678547l7.035736 0l0 -10.968754c0 -0.8252945 0.27062988 -1.5200806 0.8118286 -2.0843506c0.54504395 -0.5681114 1.2532349 -0.8521652 2.1245422 -0.8521652c0.75616455 0 1.3395996 0.24182892 1.7503052 0.72549057c0.41455078 0.48366165 0.6218262 1.1266251 0.6218262 1.9288902l0 11.250889l7.041504 0l0 -12.097298c0 -2.2647629 -0.54312134 -3.9978828 -1.6293945 -5.19936c-1.0862732 -1.2053146 -2.713745 -1.807972 -4.882416 -1.807972z" fill-rule="evenodd"/><path fill="#0000ff" fill-opacity="0.5" d="m352.31882 45.163216c-2.782837 0 -5.0417175 0.48366165 -6.7766724 1.450985c-1.7311096 0.9673233 -2.5966492 2.594883 -2.5966492 4.882675c0 1.416439 0.39916992 2.520031 1.1975708 3.3107796c0.8022156 0.7869072 1.7406921 1.3454208 2.8154297 1.6755409c1.0747681 0.3301201 2.448883 0.63720703 4.1224365 0.92126083c1.3894958 0.23799133 2.391327 0.4625473 3.0054626 0.6736717c0.61413574 0.2111206 0.9212036 0.55275345 0.9212036 1.0248985c0 0.92126083 -0.9787903 1.3818893 -2.9363708 1.3818893c-0.7331238 0 -1.4240417 -0.15929794 -2.0727234 -0.47790146c-0.64868164 -0.31860352 -0.9845276 -0.87903595 -1.0075684 -1.6813011l0 -0.14394379l-6.540619 0c0 1.4855309 0.45870972 2.711956 1.3760681 3.6792793c0.9212036 0.9673233 2.113037 1.6813011 3.57547 2.1419334c1.4624023 0.4606247 3.0188904 0.69094086 4.6693726 0.69094086c2.8749695 0 5.202942 -0.506691 6.9839478 -1.5200768c1.7810059 -1.0172234 2.6715088 -2.7157974 2.6715088 -5.0957184c0 -1.4625015 -0.41262817 -2.6006393 -1.2378845 -3.414421c-0.82525635 -0.8137779 -1.792511 -1.3799706 -2.9017944 -1.6985741c-1.109314 -0.3185997 -2.4891968 -0.59497833 -4.1397095 -0.8291321c-1.3434448 -0.214962 -2.3106995 -0.41648483 -2.901825 -0.6045761c-0.58724976 -0.18809128 -0.8808899 -0.5066948 -0.8808899 -0.95580673c0 -0.80226517 0.8482666 -1.2033958 2.5448303 -1.2033958c0.6371765 0 1.1687927 0.11899567 1.5948486 0.356987c0.61413574 0.2840538 0.92123413 0.76771545 0.92123413 1.450985l6.5405884 0c0 -2.0536423 -0.86746216 -3.5698814 -2.602417 -4.5487213c-1.7311096 -0.9788399 -3.8460693 -1.4682579 -6.3448486 -1.4682579z" fill-rule="evenodd"/><path fill="#0000ff" fill-opacity="0.5" d="m376.90356 56.131966l0 1.5891724c0 0.73316956 -0.34927368 1.3473434 -1.0478821 1.8425217c-0.69473267 0.4951744 -1.5007935 0.7427635 -2.4181824 0.7427635c-1.6044312 0 -2.4066467 -0.58922195 -2.4066467 -1.7676659c0 -0.73316956 0.47787476 -1.3166351 1.4336243 -1.7503929c0.9557495 -0.43759918 2.4354553 -0.6563988 4.439087 -0.6563988zm19.35147 -17.93578c-2.1955566 0 -3.8825073 0.5009346 -5.0608826 1.5028076c-1.1784058 1.0018692 -1.7675781 2.7061996 -1.7675781 5.1129913l0 0.77731323l-2.6197205 0l0 4.7732773l2.6197205 0l0 13.90527l7.035736 0l0 -13.90527l3.6100159 0l0 -4.7732773l-3.6100159 0l0 -0.74276733c0 -0.6832657 0.14202881 -1.1669273 0.42608643 -1.450985c0.2840271 -0.2840538 0.8041382 -0.4260826 1.5603027 -0.4260826l1.6236267 0l0 -4.1399117c-0.47213745 -0.16505814 -1.0977783 -0.31092453 -1.8769836 -0.43759537c-0.7753296 -0.13051224 -1.4221191 -0.19577026 -1.9403076 -0.19577026zm-21.97116 6.9670296c-3.1359558 0 -5.5483704 0.52012634 -7.237274 1.5603828c-1.6850586 1.0364189 -2.527588 2.4394188 -2.527588 4.2090073c0 0.2111206 0.013458252 0.37618256 0.04031372 0.49517822l6.932129 0l0 -0.1439476c0 -0.56427383 0.26483154 -0.9750023 0.79452515 -1.2321854c0.5297241 -0.26102448 1.1611328 -0.3915367 1.8942566 -0.3915367c0.8022156 0 1.456665 0.18809128 1.9633179 0.56427383c0.50668335 0.37617874 0.76000977 0.9308548 0.76000977 1.6640244l0 0.91550064c-2.9709167 0 -5.3775635 0.1784935 -7.220001 0.5354843c-1.8385925 0.3531494 -3.2472534 1.0076256 -4.2260437 1.9634361c-0.9787903 0.95196915 -1.4682007 2.3357773 -1.4682007 4.1514244c0 3.4931107 2.193634 5.239666 6.5809326 5.239666c1.4854431 0 2.7828064 -0.2111206 3.8921204 -0.63336945c1.1092834 -0.4260788 2.111084 -0.9941864 3.0054321 -1.7043266c0.33010864 0.73316956 0.9365845 1.3070374 1.819397 1.7216072c0.8866577 0.41072845 2.0132446 0.61608887 3.3796997 0.61608887c0.7101135 0 1.3357544 -0.053741455 1.8769836 -0.16121674c0.54119873 -0.10748291 0.9595642 -0.21304321 1.255127 -0.31668854c0.29556274 -0.10747528 0.47790527 -0.18424988 0.54696655 -0.23031235l0 -4.070816l-1.2723999 0c-0.37615967 0 -0.6582947 -0.12859344 -0.8463745 -0.38578033c-0.18807983 -0.26102448 -0.2821045 -0.59114075 -0.2821045 -0.99035263l0 -7.2894707c0 -2.1457672 -0.89627075 -3.6965523 -2.6888123 -4.652359c-1.792511 -0.95581055 -4.1166687 -1.433712 -6.972412 -1.433712z" fill-rule="evenodd"/><path fill="#0000ff" fill-opacity="0.5" d="m411.74615 49.660114c0.9903259 0 1.7618408 0.282135 2.3145447 0.84640884c0.5565796 0.56427 0.8348694 1.3300667 0.8348694 2.29739l-6.863037 0c0.26101685 -2.0958633 1.4989014 -3.1437988 3.713623 -3.1437988zm-0.2821045 -4.4968987c-3.2779846 0 -5.849701 0.8252945 -7.715149 2.4758873c-1.8616333 1.650589 -2.7924194 4.080414 -2.7924194 7.289467c0 3.2781525 0.9557495 5.7252464 2.8672485 7.3412895c1.9115295 1.6160431 4.6003113 2.4240646 8.066376 2.4240646c3.3010254 0 5.81131 -0.63720703 7.5309143 -1.9116135c1.7234192 -1.2744102 2.585144 -3.0439987 2.585144 -5.3087616l-6.828491 0c0 0.8252983 -0.2782898 1.4855347 -0.83483887 1.9807091c-0.5527344 0.49517822 -1.4183044 0.74276733 -2.5966797 0.74276733c-1.2973633 0 -2.2473755 -0.34163666 -2.8499756 -1.0249023c-0.5988159 -0.6832657 -0.89819336 -1.6966515 -0.89819336 -3.0401573l14.008179 0l0 -1.2033958c0 -3.3011818 -0.90200806 -5.754036 -2.7060547 -7.3585625c-1.8040466 -1.6045303 -4.4160767 -2.4067917 -7.8360596 -2.4067917z" fill-rule="evenodd"/><path fill="#0000ff" fill-opacity="0.5" d="m428.65643 39.929306l-1.519989 5.659992l-2.901825 0l0 4.7732773l2.61969 0l0 9.339272c0 1.8194885 0.5585022 3.1073341 1.6754456 3.863533c1.1208191 0.7523613 2.719513 1.1285439 4.7960815 1.1285439c0.66018677 0 1.4374695 -0.059501648 2.3318176 -0.17849731c0.89816284 -0.11898804 1.6293945 -0.27253723 2.193634 -0.4606247l0 -4.1399117l-1.9806213 0c-0.75231934 0 -1.2705078 -0.19384766 -1.5545349 -0.5815468c-0.2840271 -0.38769913 -0.4260559 -1.0076294 -0.4260559 -1.8597946l0 -7.1109734l3.9612122 0l0 -4.7732773l-3.9612122 0l0 -5.659992z" fill-rule="evenodd"/><path fill="#0000ff" fill-opacity="0.5" d="m438.98517 45.5893l7.4272766 18.678547c-0.33010864 1.7235184 -1.3798828 2.5852814 -3.149414 2.5852814l-2.8269653 0l0 4.2090073c1.1784058 0.4222412 2.5333252 0.63336945 4.06485 0.63336945c2.5256653 0 4.4890137 -0.6775131 5.8900146 -2.0325317c1.4048462 -1.3550186 2.5909119 -3.3414917 3.5581665 -5.9594l6.649994 -18.114273l-6.9320984 0l-3.293335 12.419735l-0.24758911 0l-3.5697021 -12.419735z" fill-rule="evenodd"/><path fill="#00ff00" fill-opacity="0.5" d="m3.540823 37.27415l0 6.224262l7.9972715 0l0 18.11427l7.8187876 0l0 -18.11427l7.9569683 0l0 -6.224262z" fill-rule="evenodd"/><path fill="#00ff00" fill-opacity="0.5" d="m30.641527 35.967113l0 4.7732773l7.035757 0l0 -4.7732773zm0 6.9670258l0 18.678543l7.035757 0l0 -18.678543z" fill-rule="evenodd"/><path fill="#00ff00" fill-opacity="0.5" d="m54.90368 42.508057c-1.2935333 0 -2.5256538 0.289814 -3.6963654 0.8694382c-1.1668625 0.5757904 -2.103424 1.35886 -2.8096962 2.3492126l-0.46060562 -2.7925682l-5.7633324 0l0 18.678543l7.035759 0l0 -10.96875c0 -0.8252945 0.25909042 -1.5200768 0.7772713 -2.0843506c0.5220146 -0.5681076 1.195652 -0.8521652 2.0209084 -0.8521652c0.7062607 0 1.2532272 0.24183273 1.6409111 0.7254944c0.39151382 0.48366165 0.58727264 1.1266251 0.58727264 1.9288864l0 11.250885l7.035755 0l0 -10.96875c0 -0.8252945 0.25909042 -1.5200768 0.7772713 -2.0843506c0.52201843 -0.5681076 1.1956558 -0.8521652 2.0209122 -0.8521652c0.70625305 0 1.2532272 0.24183273 1.6409073 0.7254944c0.39151764 0.48366165 0.58727264 1.1266251 0.58727264 1.9288864l0 11.250885l7.0415115 0l0 -12.097294c0 -2.2417297 -0.5316162 -3.9690933 -1.5948486 -5.182083c-1.0593948 -1.2168312 -2.650406 -1.8252487 -4.7730255 -1.8252487c-1.2513199 0 -2.4488907 0.289814 -3.5927277 0.8694382c-1.143837 0.5757904 -2.0803986 1.35886 -2.8096962 2.3492126c-0.9672737 -2.1457672 -2.8557587 -3.2186508 -5.665455 -3.2186508z" fill-rule="evenodd"/><path fill="#00ff00" fill-opacity="0.5" d="m87.48577 47.00496c0.99030304 0 1.7618179 0.282135 2.3145447 0.846405c0.55656433 0.56427383 0.8348541 1.3300705 0.8348541 2.2973938l-6.8630295 0c0.26100922 -2.0958672 1.4988861 -3.1437988 3.7136307 -3.1437988zm-0.28211975 -4.4969025c-3.2779846 0 -5.8496933 0.8252945 -7.715149 2.4758873c-1.861618 1.650589 -2.792427 4.080414 -2.792427 7.289467c0 3.2781525 0.95575714 5.7252502 2.8672714 7.3412895c1.9115219 1.6160431 4.6003036 2.4240646 8.066368 2.4240646c3.3010101 0 5.8113174 -0.6372032 7.5309067 -1.9116135c1.7234344 -1.2744102 2.5851517 -3.0439987 2.5851517 -5.308758l-6.8284836 0c0 0.8252945 -0.2782898 1.4855309 -0.8348465 1.9807091c-0.55272675 0.4951744 -1.4182892 0.7427635 -2.596672 0.7427635c-1.2973709 0 -2.2473755 -0.34163284 -2.8499985 -1.0249023c-0.5987854 -0.6832657 -0.8981781 -1.6966515 -0.8981781 -3.0401573l14.008179 0l0 -1.2033958c0 -3.301178 -0.9020157 -5.754032 -2.7060623 -7.3585625c-1.804039 -1.6045265 -4.4160614 -2.4067917 -7.8360596 -2.4067917z" fill-rule="evenodd"/><path fill="#00ff00" fill-opacity="0.5" d="m116.17576 37.27415l-1.5199966 5.6599884l-2.9018173 0l0 4.7732773l2.6196976 0l0 9.339272c0 1.8194885 0.5584793 3.1073341 1.6754532 3.8635368c1.1208038 0.7523613 2.7194824 1.12854 4.7960587 1.12854c0.6601944 0 1.4374695 -0.059497833 2.3318176 -0.1784935c0.8981781 -0.11899567 1.6293945 -0.27253723 2.193634 -0.4606285l0 -4.1399117l-1.9806061 0c-0.75231934 0 -1.2705002 -0.19384766 -1.5545425 -0.5815468c-0.28404236 -0.3876953 -0.42606354 -1.0076256 -0.42606354 -1.8597908l0 -7.110977l3.9612122 0l0 -4.7732773l-3.9612122 0l0 -5.6599884z" fill-rule="evenodd"/><path fill="#00ff00" fill-opacity="0.5" d="m138.28447 47.287094c2.3337402 0 3.5006104 1.3319855 3.5006104 3.995964l0 2.015255c0 2.6409454 -1.1668701 3.9614182 -3.5006104 3.9614182c-2.3106995 0 -3.4660492 -1.3204727 -3.4660492 -3.9614182l0 -2.015255c0 -2.6639786 1.1553497 -3.995964 3.4660492 -3.995964zm0 -4.7790375c-3.2779694 0 -5.8496857 0.8252945 -7.715149 2.4758873c-1.861618 1.650589 -2.7924194 4.080414 -2.7924194 7.289467c0 3.2090569 0.9308014 5.6388817 2.7924194 7.2894707c1.8654633 1.650589 4.4371796 2.4758835 7.715149 2.4758835c3.2779846 0 5.853546 -0.8310509 7.7266693 -2.4931564c1.8769684 -1.665947 2.8154602 -4.0900116 2.8154602 -7.2721977c0 -3.1821861 -0.9384918 -5.604332 -2.8154602 -7.2664375c-1.8731232 -1.6659431 -4.4486847 -2.4989166 -7.7266693 -2.4989166z" fill-rule="evenodd"/><path fill="#00ff00" fill-opacity="0.5" d="m171.60931 35.54103c-2.1955566 0 -3.8825226 0.5009346 -5.060913 1.5028038c-1.1783905 1.0018692 -1.7675781 2.7061996 -1.7675781 5.1129913l0 0.77731323l-2.61969 0l0 4.7732773l2.61969 0l0 13.905266l7.0357666 0l0 -13.905266l3.6100006 0l0 -4.7732773l-3.6100006 0l0 -0.7427635c0 -0.6832695 0.14201355 -1.1669312 0.4260559 -1.450985c0.28404236 -0.2840538 0.8041382 -0.4260826 1.5603027 -0.4260826l1.623642 0l0 -4.1399117c-0.4721222 -0.16505814 -1.0977936 -0.31092453 -1.8769836 -0.43759918c-0.77534485 -0.13051224 -1.4221191 -0.19576645 -1.9402924 -0.19576645z" fill-rule="evenodd"/><path fill="#00ff00" fill-opacity="0.5" d="m186.81833 47.287094c2.3337402 0 3.5006104 1.3319855 3.5006104 3.995964l0 2.015255c0 2.6409454 -1.1668701 3.9614182 -3.5006104 3.9614182c-2.3107147 0 -3.4660645 -1.3204727 -3.4660645 -3.9614182l0 -2.015255c0 -2.6639786 1.1553497 -3.995964 3.4660645 -3.995964zm0 -4.7790375c-3.2779846 0 -5.849701 0.8252945 -7.715149 2.4758873c-1.861618 1.650589 -2.7924194 4.080414 -2.7924194 7.289467c0 3.2090569 0.9308014 5.6388817 2.7924194 7.2894707c1.865448 1.650589 4.4371643 2.4758835 7.715149 2.4758835c3.2779846 0 5.853531 -0.8310509 7.7266693 -2.4931564c1.8769684 -1.665947 2.815445 -4.0900116 2.815445 -7.2721977c0 -3.1821861 -0.93847656 -5.604332 -2.815445 -7.2664375c-1.8731384 -1.6659431 -4.4487 -2.4989166 -7.7266693 -2.4989166z" fill-rule="evenodd"/><path fill="#00ff00" fill-opacity="0.5" d="m210.41313 42.508057c-3.2779846 0 -5.849701 0.8252945 -7.715149 2.4758873c-1.861618 1.650589 -2.7924347 4.080414 -2.7924347 7.289467c0 3.2090569 0.93081665 5.6388817 2.7924347 7.2894707c1.865448 1.650589 4.4371643 2.4758835 7.715149 2.4758835c3.066864 0 5.5483856 -0.66023254 7.4445496 -1.9807053c1.8999939 -1.3204765 2.8499908 -3.3376503 2.8499908 -6.051529l-6.546356 0c0 2.1688004 -1.201416 3.2532005 -3.604248 3.2532005c-2.406662 0 -3.6100006 -1.3204727 -3.6100006 -3.9614182l0 -2.015255c0 -2.6639786 1.1553497 -3.995964 3.4660645 -3.995964c2.3106995 0 3.4660645 1.061367 3.4660645 3.184105l6.828476 0c0 -2.6908493 -0.94999695 -4.69075 -2.8499908 -5.9997063c-1.896164 -1.3089561 -4.3776855 -1.9634361 -7.4445496 -1.9634361z" fill-rule="evenodd"/><path fill="#00ff00" fill-opacity="0.5" d="m224.27763 42.93414l0 12.097294c0 2.2647667 0.5431366 3.9998055 1.6293945 5.20512c1.0862732 1.2014732 2.713745 1.8022118 4.882431 1.8022118c1.320404 0 2.5755615 -0.2878914 3.7654572 -0.863678c1.1898956 -0.579628 2.151413 -1.3780518 2.8845367 -2.395279l0.46061707 2.8328743l5.763321 0l0 -18.678543l-7.0357513 0l0 10.96875c0 0.8252983 -0.27252197 1.5219994 -0.8175812 2.0901108c-0.541214 0.56427 -1.247467 0.846405 -2.1187897 0.846405c-0.7561493 0 -1.341507 -0.24182892 -1.7560577 -0.72549057c-0.41070557 -0.48366165 -0.61605835 -1.1266251 -0.61605835 -1.9288864l0 -11.250889z" fill-rule="evenodd"/><path fill="#00ff00" fill-opacity="0.5" d="m256.82547 42.508057c-2.7828217 0 -5.0417023 0.48366165 -6.776657 1.450985c-1.7311096 0.9673233 -2.5966644 2.594883 -2.5966644 4.882679c0 1.4164352 0.39920044 2.5200272 1.1975708 3.3107758c0.80223083 0.7869072 1.7407074 1.3454208 2.8154602 1.6755409c1.0747528 0.3301201 2.448883 0.63720703 4.1224213 0.92126083c1.3895111 0.23799133 2.3913116 0.46255112 3.0054474 0.6736717c0.61413574 0.2111206 0.92123413 0.55275726 0.92123413 1.0249023c0 0.921257 -0.9787903 1.3818893 -2.9363708 1.3818893c-0.73313904 0 -1.4240417 -0.15930176 -2.0727386 -0.47790527c-0.64868164 -0.31860352 -0.98454285 -0.87903595 -1.0075684 -1.6812973l0 -0.1439476l-6.5406036 0c0 1.4855309 0.4586792 2.7119598 1.3760529 3.6792831c0.9212189 0.9673195 2.113037 1.6812973 3.5754547 2.1419258c1.4624329 0.46063232 3.0188904 0.6909447 4.669403 0.6909447c2.874939 0 5.2029114 -0.506691 6.9839478 -1.5200768c1.7810059 -1.0172234 2.6715088 -2.7157974 2.6715088 -5.0957184c0 -1.4625015 -0.41262817 -2.6006393 -1.2378845 -3.414421c-0.82525635 -0.8137779 -1.7925415 -1.3799667 -2.901825 -1.6985703c-1.1092834 -0.31860352 -2.4891968 -0.59498215 -4.139679 -0.8291359c-1.3434448 -0.21495819 -2.3107147 -0.41648483 -2.901825 -0.6045761c-0.5872803 -0.18809128 -0.8809204 -0.5066948 -0.8809204 -0.95580673c0 -0.80226517 0.8482971 -1.2033958 2.5448608 -1.2033958c0.6371765 0 1.1687927 0.11899567 1.5948486 0.356987c0.61413574 0.2840538 0.9212036 0.76771545 0.9212036 1.450985l6.540619 0c0 -2.0536423 -0.8674927 -3.5698814 -2.6024475 -4.5487213c-1.7311096 -0.97883606 -3.8460388 -1.4682579 -6.3448486 -1.4682579z" fill-rule="evenodd"/><path fill="#00ff00" fill-opacity="0.5" d="m290.9963 47.287094c2.3337402 0 3.5006104 1.3319855 3.5006104 3.995964l0 2.015255c0 2.6409454 -1.1668701 3.9614182 -3.5006104 3.9614182c-2.3106995 0 -3.4660645 -1.3204727 -3.4660645 -3.9614182l0 -2.015255c0 -2.6639786 1.155365 -3.995964 3.4660645 -3.995964zm0 -4.7790375c-3.2779846 0 -5.849701 0.8252945 -7.715149 2.4758873c-1.8616028 1.650589 -2.7924194 4.080414 -2.7924194 7.289467c0 3.2090569 0.93081665 5.6388817 2.7924194 7.2894707c1.865448 1.650589 4.4371643 2.4758835 7.715149 2.4758835c3.2779846 0 5.853546 -0.8310509 7.726654 -2.4931564c1.8769836 -1.665947 2.8154602 -4.0900116 2.8154602 -7.2721977c0 -3.1821861 -0.93847656 -5.604332 -2.8154602 -7.2664375c-1.8731079 -1.6659431 -4.4486694 -2.4989166 -7.726654 -2.4989166z" fill-rule="evenodd"/><path fill="#00ff00" fill-opacity="0.5" d="m317.8096 42.508057c-1.320404 0 -2.5774536 0.29557037 -3.7712097 0.88671494c-1.1899109 0.58730316 -2.1495056 1.3761292 -2.8787842 2.3664856l-0.4606018 -2.827118l-5.763336 0l0 18.678543l7.0357666 0l0 -10.96875c0 -0.8252945 0.27059937 -1.5200768 0.8117981 -2.0843506c0.54507446 -0.5681076 1.2532349 -0.8521652 2.1245422 -0.8521652c0.75616455 0 1.3395996 0.24183273 1.7503052 0.7254944c0.41455078 0.48366165 0.6218262 1.1266251 0.6218262 1.9288864l0 11.250885l7.041504 0l0 -12.097294c0 -2.2647629 -0.54312134 -3.9978828 -1.6293945 -5.19936c-1.0862427 -1.2053146 -2.7137146 -1.807972 -4.882416 -1.807972z" fill-rule="evenodd"/><path fill="#00ff00" fill-opacity="0.5" d="m349.1884 42.508057c-2.782837 0 -5.0417175 0.48366165 -6.7766724 1.450985c-1.7311096 0.9673233 -2.5966492 2.594883 -2.5966492 4.882679c0 1.4164352 0.39920044 2.5200272 1.1975708 3.3107758c0.8022156 0.7869072 1.7407227 1.3454208 2.8154602 1.6755409c1.0747375 0.3301201 2.448883 0.63720703 4.122406 0.92126083c1.3894958 0.23799133 2.391327 0.46255112 3.0054626 0.6736717c0.61413574 0.2111206 0.9212036 0.55275726 0.9212036 1.0249023c0 0.921257 -0.9787903 1.3818893 -2.9363403 1.3818893c-0.7331543 0 -1.4240417 -0.15930176 -2.0727234 -0.47790527c-0.64871216 -0.31860352 -0.9845581 -0.87903595 -1.0075989 -1.6812973l0 -0.1439476l-6.5405884 0c0 1.4855309 0.4586792 2.7119598 1.3760376 3.6792831c0.92123413 0.9673195 2.113037 1.6812973 3.57547 2.1419258c1.4624329 0.46063232 3.0188904 0.6909447 4.669403 0.6909447c2.874939 0 5.2029114 -0.506691 6.983917 -1.5200768c1.7810364 -1.0172234 2.6715393 -2.7157974 2.6715393 -5.0957184c0 -1.4625015 -0.41262817 -2.6006393 -1.2378845 -3.414421c-0.82525635 -0.8137779 -1.7925415 -1.3799667 -2.901825 -1.6985703c-1.1092834 -0.31860352 -2.4891968 -0.59498215 -4.1397095 -0.8291359c-1.3434143 -0.21495819 -2.3106995 -0.41648483 -2.9017944 -0.6045761c-0.5872803 -0.18809128 -0.8809204 -0.5066948 -0.8809204 -0.95580673c0 -0.80226517 0.8482971 -1.2033958 2.5448608 -1.2033958c0.637146 0 1.1687622 0.11899567 1.5948486 0.356987c0.61413574 0.2840538 0.9212036 0.76771545 0.9212036 1.450985l6.5405884 0c0 -2.0536423 -0.86746216 -3.5698814 -2.602417 -4.5487213c-1.7311096 -0.97883606 -3.8460693 -1.4682579 -6.3448486 -1.4682579z" fill-rule="evenodd"/><path fill="#00ff00" fill-opacity="0.5" d="m373.77313 53.476807l0 1.5891762c0 0.73316956 -0.34927368 1.3473396 -1.0478516 1.8425179c-0.6947632 0.49517822 -1.500824 0.74276733 -2.4181824 0.74276733c-1.6044617 0 -2.4066772 -0.58922577 -2.4066772 -1.7676697c0 -0.73316956 0.47787476 -1.3166351 1.4336243 -1.7503929c0.95578 -0.43759918 2.4354553 -0.6563988 4.439087 -0.6563988zm19.351501 -17.935776c-2.1955566 0 -3.8825378 0.5009346 -5.060913 1.5028038c-1.1783752 1.0018692 -1.7675781 2.7061996 -1.7675781 5.1129913l0 0.77731323l-2.61969 0l0 4.7732773l2.61969 0l0 13.905266l7.0357666 0l0 -13.905266l3.6099854 0l0 -4.7732773l-3.6099854 0l0 -0.7427635c0 -0.6832695 0.14199829 -1.1669312 0.4260559 -1.450985c0.2840271 -0.2840538 0.8041382 -0.4260826 1.5603027 -0.4260826l1.6236267 0l0 -4.1399117c-0.47210693 -0.16505814 -1.0977783 -0.31092453 -1.8769531 -0.43759918c-0.7753601 -0.13051224 -1.4221191 -0.19576645 -1.9403076 -0.19576645zm-21.971191 6.9670258c-3.1359558 0 -5.5483704 0.52013016 -7.237274 1.5603828c-1.6850281 1.0364189 -2.5275574 2.4394226 -2.5275574 4.2090073c0 0.21112442 0.013427734 0.37618256 0.040283203 0.49517822l6.932129 0l0 -0.1439476c0 -0.56427 0.26486206 -0.9749985 0.79455566 -1.2321854c0.5296936 -0.26102066 1.1611023 -0.3915329 1.8942261 -0.3915329c0.8022461 0 1.456665 0.18808746 1.9633484 0.56427c0.50665283 0.37617874 0.75997925 0.9308548 0.75997925 1.6640244l0 0.91550446c-2.9708862 0 -5.3775635 0.1784935 -7.2199707 0.5354805c-1.8385925 0.3531494 -3.247284 1.0076294 -4.226074 1.9634361c-0.9787903 0.95196915 -1.4681702 2.3357773 -1.4681702 4.151428c0 3.4931068 2.193634 5.239662 6.580902 5.239662c1.4854431 0 2.782837 -0.2111206 3.8921204 -0.63336563c1.1092834 -0.4260826 2.1111145 -0.9941902 3.0054626 -1.7043304c0.33007812 0.73316956 0.93655396 1.3070374 1.8193665 1.7216072c0.88668823 0.41072845 2.0132446 0.61608887 3.3796997 0.61608887c0.7101135 0 1.3357544 -0.05373764 1.8769836 -0.16122055c0.54119873 -0.107479095 0.9595947 -0.2130394 1.2551575 -0.3166809c0.29556274 -0.107479095 0.47787476 -0.1842537 0.54696655 -0.23031616l0 -4.070816l-1.2724304 0c-0.37615967 0 -0.6582947 -0.12859344 -0.8463745 -0.38577652c-0.18807983 -0.26102448 -0.2821045 -0.59114456 -0.2821045 -0.99035645l0 -7.289467c0 -2.145771 -0.89627075 -3.696556 -2.6887817 -4.652363c-1.7925415 -0.95580673 -4.1166687 -1.433712 -6.9724426 -1.433712z" fill-rule="evenodd"/><path fill="#00ff00" fill-opacity="0.5" d="m408.61575 47.00496c0.9902954 0 1.7618103 0.282135 2.3145447 0.846405c0.5565491 0.56427383 0.83483887 1.3300705 0.83483887 2.2973938l-6.863037 0c0.26101685 -2.0958672 1.4989014 -3.1437988 3.7136536 -3.1437988zm-0.282135 -4.4969025c-3.2779846 0 -5.849701 0.8252945 -7.715149 2.4758873c-1.8616333 1.650589 -2.7924194 4.080414 -2.7924194 7.289467c0 3.2781525 0.9557495 5.7252502 2.867279 7.3412895c1.911499 1.6160431 4.600281 2.4240646 8.066345 2.4240646c3.3010254 0 5.81131 -0.6372032 7.5309143 -1.9116135c1.7234497 -1.2744102 2.585144 -3.0439987 2.585144 -5.308758l-6.8284607 0c0 0.8252945 -0.2782898 1.4855309 -0.8348694 1.9807091c-0.5527344 0.4951744 -1.4182739 0.7427635 -2.5966492 0.7427635c-1.2973938 0 -2.2473755 -0.34163284 -2.850006 -1.0249023c-0.5987854 -0.6832657 -0.89819336 -1.6966515 -0.89819336 -3.0401573l14.008179 0l0 -1.2033958c0 -3.301178 -0.90200806 -5.754032 -2.7060547 -7.3585625c-1.8040466 -1.6045265 -4.416046 -2.4067917 -7.8360596 -2.4067917z" fill-rule="evenodd"/><path fill="#00ff00" fill-opacity="0.5" d="m425.526 37.27415l-1.519989 5.6599884l-2.901825 0l0 4.7732773l2.61969 0l0 9.339272c0 1.8194885 0.5585022 3.1073341 1.6754761 3.8635368c1.1208191 0.7523613 2.719513 1.12854 4.796051 1.12854c0.6602173 0 1.4374695 -0.059497833 2.3318176 -0.1784935c0.89819336 -0.11899567 1.6293945 -0.27253723 2.193634 -0.4606285l0 -4.1399117l-1.9805908 0c-0.75234985 0 -1.2705383 -0.19384766 -1.5545654 -0.5815468c-0.2840271 -0.3876953 -0.4260559 -1.0076256 -0.4260559 -1.8597908l0 -7.110977l3.9612122 0l0 -4.7732773l-3.9612122 0l0 -5.6599884z" fill-rule="evenodd"/><path fill="#00ff00" fill-opacity="0.5" d="m435.85474 42.93414l7.4272766 18.678543c-0.33010864 1.723526 -1.3798828 2.5852852 -3.1493835 2.5852852l-2.8269653 0l0 4.2090073c1.1783752 0.42224884 2.5333252 0.63336945 4.0648193 0.63336945c2.5256653 0 4.4890137 -0.6775131 5.8900146 -2.0325317c1.4048462 -1.3550186 2.5909119 -3.341488 3.5581665 -5.9594l6.6500244 -18.114273l-6.932129 0l-3.293335 12.419735l-0.24758911 0l-3.5696716 -12.419735z" fill-rule="evenodd"/><path fill="#ff0000" fill-opacity="0.5" d="m-1.6080418E-4 33.733166l0 6.224262l7.997272 0l0 18.114273l7.8187866 0l0 -18.114273l7.9569693 0l0 -6.224262z" fill-rule="evenodd"/><path fill="#ff0000" fill-opacity="0.5" d="m27.100544 32.42613l0 4.7732773l7.035755 0l0 -4.7732773zm0 6.9670296l0 18.678543l7.035755 0l0 -18.678543z" fill-rule="evenodd"/><path fill="#ff0000" fill-opacity="0.5" d="m51.362694 38.967075c-1.2935295 0 -2.52565 0.28981018 -3.6963615 0.8694382c-1.1668663 0.5757866 -2.103428 1.3588562 -2.8096962 2.3492126l-0.46060562 -2.7925682l-5.7633324 0l0 18.678543l7.035755 0l0 -10.96875c0 -0.8252945 0.25909042 -1.5200806 0.7772713 -2.0843506c0.52201843 -0.5681114 1.195652 -0.8521652 2.0209084 -0.8521652c0.7062607 0 1.253231 0.24182892 1.6409111 0.72549057c0.39151382 0.48366165 0.58727264 1.1266251 0.58727264 1.9288902l0 11.250885l7.035755 0l0 -10.96875c0 -0.8252945 0.25909042 -1.5200806 0.7772751 -2.0843506c0.5220146 -0.5681114 1.195652 -0.8521652 2.0209084 -0.8521652c0.70625687 0 1.2532272 0.24182892 1.6409073 0.72549057c0.39151764 0.48366165 0.58727264 1.1266251 0.58727264 1.9288902l0 11.250885l7.041519 0l0 -12.097294c0 -2.2417336 -0.53162384 -3.9690933 -1.5948486 -5.182087c-1.0593948 -1.2168312 -2.6504135 -1.8252449 -4.773033 -1.8252449c-1.2513161 0 -2.4488907 0.28981018 -3.5927277 0.8694382c-1.1438332 0.5757866 -2.0803947 1.3588562 -2.8096962 2.3492126c-0.9672737 -2.1457672 -2.8557587 -3.2186508 -5.665455 -3.2186508z" fill-rule="evenodd"/><path fill="#ff0000" fill-opacity="0.5" d="m83.94479 43.463974c0.99030304 0 1.7618179 0.282135 2.3145447 0.84640884c0.5565567 0.56427 0.8348465 1.3300667 0.8348465 2.29739l-6.8630295 0c0.26100922 -2.0958672 1.4988937 -3.1437988 3.7136383 -3.1437988zm-0.28212738 -4.4968987c-3.277977 0 -5.8496933 0.8252945 -7.715149 2.4758835c-1.861618 1.6505928 -2.7924194 4.080414 -2.7924194 7.2894707c0 3.2781487 0.95575714 5.7252464 2.8672714 7.3412895c1.9115143 1.6160431 4.6003036 2.4240646 8.06636 2.4240646c3.3010101 0 5.8113174 -0.6372032 7.5309067 -1.9116135c1.7234421 -1.2744102 2.5851517 -3.0439987 2.5851517 -5.3087616l-6.8284836 0c0 0.8252945 -0.2782898 1.4855309 -0.8348465 1.9807091c-0.55272675 0.49517822 -1.4182892 0.74276733 -2.5966644 0.74276733c-1.2973785 0 -2.247383 -0.34163666 -2.850006 -1.0249023c-0.5987854 -0.6832695 -0.8981781 -1.6966553 -0.8981781 -3.0401573l14.008179 0l0 -1.2033958c0 -3.3011818 -0.9020157 -5.754036 -2.7060623 -7.3585625c-1.804039 -1.6045303 -4.416054 -2.4067917 -7.8360596 -2.4067917z" fill-rule="evenodd"/><path fill="#ff0000" fill-opacity="0.5" d="m112.63477 33.733166l-1.5199966 5.659992l-2.9018173 0l0 4.7732773l2.6196976 0l0 9.339272c0 1.8194885 0.5584793 3.1073303 1.6754532 3.863533c1.1208038 0.7523613 2.71949 1.1285439 4.7960587 1.1285439c0.660202 0 1.4374695 -0.059497833 2.3318176 -0.1784935c0.89818573 -0.11899567 1.6293945 -0.27253723 2.193634 -0.46063232l0 -4.1399117l-1.9806061 0c-0.75231934 0 -1.2705002 -0.19384766 -1.5545425 -0.58154297c-0.28404236 -0.38769913 -0.42606354 -1.0076294 -0.42606354 -1.8597946l0 -7.1109734l3.9612122 0l0 -4.7732773l-3.9612122 0l0 -5.659992z" fill-rule="evenodd"/><path fill="#ff0000" fill-opacity="0.5" d="m134.7435 43.74611c2.333725 0 3.500595 1.3319893 3.500595 3.995964l0 2.0152588c0 2.6409416 -1.1668701 3.9614143 -3.500595 3.9614143c-2.3107147 0 -3.4660645 -1.3204727 -3.4660645 -3.9614143l0 -2.0152588c0 -2.6639748 1.1553497 -3.995964 3.4660645 -3.995964zm0 -4.7790337c-3.2779846 0 -5.849701 0.8252945 -7.7151566 2.4758835c-1.861618 1.6505928 -2.792427 4.080414 -2.792427 7.2894707c0 3.2090569 0.930809 5.638878 2.792427 7.289467c1.8654556 1.650589 4.437172 2.4758873 7.7151566 2.4758873c3.2779694 0 5.853531 -0.8310547 7.726654 -2.4931602c1.8769684 -1.665947 2.8154602 -4.0900116 2.8154602 -7.272194c0 -3.1821861 -0.9384918 -5.604332 -2.8154602 -7.2664375c-1.8731232 -1.665947 -4.4486847 -2.4989166 -7.726654 -2.4989166z" fill-rule="evenodd"/><path fill="#ff0000" fill-opacity="0.5" d="m168.06833 32.000046c-2.1955566 0 -3.8825226 0.5009346 -5.060913 1.5028038c-1.1783752 1.001873 -1.7675781 2.7062035 -1.7675781 5.112995l0 0.77731323l-2.61969 0l0 4.7732773l2.61969 0l0 13.905266l7.0357666 0l0 -13.905266l3.6100006 0l0 -4.7732773l-3.6100006 0l0 -0.74276733c0 -0.6832695 0.14201355 -1.1669312 0.4260559 -1.450985c0.28404236 -0.2840538 0.8041382 -0.4260826 1.5603027 -0.4260826l1.623642 0l0 -4.1399117c-0.4721222 -0.16505814 -1.0977783 -0.31092453 -1.8769684 -0.43759918c-0.7753601 -0.13050842 -1.4221344 -0.19576645 -1.9403076 -0.19576645z" fill-rule="evenodd"/><path fill="#ff0000" fill-opacity="0.5" d="m183.27734 43.74611c2.3337402 0 3.5006104 1.3319893 3.5006104 3.995964l0 2.0152588c0 2.6409416 -1.1668701 3.9614143 -3.5006104 3.9614143c-2.3107147 0 -3.4660645 -1.3204727 -3.4660645 -3.9614143l0 -2.0152588c0 -2.6639748 1.1553497 -3.995964 3.4660645 -3.995964zm0 -4.7790337c-3.2779846 0 -5.849701 0.8252945 -7.715149 2.4758835c-1.861618 1.6505928 -2.7924194 4.080414 -2.7924194 7.2894707c0 3.2090569 0.9308014 5.638878 2.7924194 7.289467c1.865448 1.650589 4.4371643 2.4758873 7.715149 2.4758873c3.2779846 0 5.853531 -0.8310547 7.7266693 -2.4931602c1.8769684 -1.665947 2.815445 -4.0900116 2.815445 -7.272194c0 -3.1821861 -0.93847656 -5.604332 -2.815445 -7.2664375c-1.8731384 -1.665947 -4.4486847 -2.4989166 -7.7266693 -2.4989166z" fill-rule="evenodd"/><path fill="#ff0000" fill-opacity="0.5" d="m206.87215 38.967075c-3.2779846 0 -5.849701 0.8252945 -7.715149 2.4758835c-1.861618 1.6505928 -2.7924194 4.080414 -2.7924194 7.2894707c0 3.2090569 0.9308014 5.638878 2.7924194 7.289467c1.865448 1.650589 4.4371643 2.4758873 7.715149 2.4758873c3.066864 0 5.5483856 -0.66023636 7.4445496 -1.9807091c1.8999939 -1.3204727 2.8499908 -3.3376503 2.8499908 -6.051525l-6.546356 0c0 2.1687965 -1.201416 3.2531967 -3.604248 3.2531967c-2.406662 0 -3.6100006 -1.3204727 -3.6100006 -3.9614143l0 -2.0152588c0 -2.6639748 1.155365 -3.995964 3.4660645 -3.995964c2.3106995 0 3.4660645 1.061367 3.4660645 3.184105l6.828476 0c0 -2.6908455 -0.94999695 -4.6907463 -2.8499908 -5.9997063c-1.896164 -1.3089561 -4.3776855 -1.9634323 -7.4445496 -1.9634323z" fill-rule="evenodd"/><path fill="#ff0000" fill-opacity="0.5" d="m220.73666 39.393158l0 12.097294c0 2.2647629 0.54312134 3.9998016 1.6293793 5.2051163c1.0862732 1.201477 2.713745 1.8022156 4.882431 1.8022156c1.320404 0 2.5755615 -0.2878952 3.7654572 -0.8636818c1.1898956 -0.5796242 2.151413 -1.378048 2.8845367 -2.395275l0.46061707 2.8328743l5.763321 0l0 -18.678543l-7.0357513 0l0 10.96875c0 0.8252945 -0.27252197 1.5219994 -0.8175812 2.090107c-0.54119873 0.56427 -1.247467 0.84640884 -2.1187744 0.84640884c-0.75616455 0 -1.3415222 -0.24183273 -1.756073 -0.7254944c-0.41070557 -0.48366165 -0.61605835 -1.1266212 -0.61605835 -1.9288864l0 -11.250885z" fill-rule="evenodd"/><path fill="#ff0000" fill-opacity="0.5" d="m253.2845 38.967075c-2.782837 0 -5.0417175 0.48366165 -6.7766724 1.4509811c-1.7311096 0.9673233 -2.5966644 2.594883 -2.5966644 4.882679c0 1.4164352 0.39920044 2.5200272 1.197586 3.3107758c0.8022156 0.786911 1.7406921 1.3454247 2.815445 1.6755447c1.0747528 0.33011627 2.4488983 0.6372032 4.1224213 0.921257c1.3894958 0.23799515 2.3913116 0.46255112 3.0054626 0.6736717c0.61413574 0.2111206 0.9212036 0.55275726 0.9212036 1.0249023c0 0.92126083 -0.9787903 1.3818893 -2.9363556 1.3818893c-0.73313904 0 -1.4240417 -0.15929794 -2.0727234 -0.47790146c-0.6486969 -0.31860352 -0.9845581 -0.87903976 -1.0075836 -1.6813011l0 -0.1439476l-6.5406036 0c0 1.4855309 0.45869446 2.7119598 1.3760529 3.6792831c0.9212189 0.9673233 2.113037 1.6812973 3.5754547 2.1419296c1.4624329 0.4606285 3.0188904 0.6909447 4.669403 0.6909447c2.8749542 0 5.202942 -0.5066948 6.9839478 -1.5200806c1.7810059 -1.0172234 2.6715088 -2.7157936 2.6715088 -5.0957184c0 -1.4624977 -0.41262817 -2.6006393 -1.2378845 -3.4144173c-0.82525635 -0.81378174 -1.792511 -1.3799706 -2.901825 -1.6985741c-1.1092834 -0.31860352 -2.4891968 -0.59497833 -4.139694 -0.8291359c-1.3434296 -0.21495819 -2.3106995 -0.41648483 -2.9018097 -0.6045761c-0.5872803 -0.18809128 -0.88090515 -0.506691 -0.88090515 -0.95580673c0 -0.80226135 0.84828186 -1.2033958 2.5448456 -1.2033958c0.63716125 0 1.1687775 0.11899567 1.5948486 0.3569908c0.61413574 0.2840538 0.9212036 0.76771545 0.9212036 1.4509811l6.540619 0c0 -2.0536423 -0.8674927 -3.5698814 -2.6024475 -4.5487175c-1.7311096 -0.9788399 -3.846054 -1.4682579 -6.3448334 -1.4682579z" fill-rule="evenodd"/><path fill="#ff0000" fill-opacity="0.5" d="m287.45532 43.74611c2.3337402 0 3.5006104 1.3319893 3.5006104 3.995964l0 2.0152588c0 2.6409416 -1.1668701 3.9614143 -3.5006104 3.9614143c-2.3106995 0 -3.4660645 -1.3204727 -3.4660645 -3.9614143l0 -2.0152588c0 -2.6639748 1.155365 -3.995964 3.4660645 -3.995964zm0 -4.7790337c-3.2779846 0 -5.849701 0.8252945 -7.715149 2.4758835c-1.8616028 1.6505928 -2.7924194 4.080414 -2.7924194 7.2894707c0 3.2090569 0.93081665 5.638878 2.7924194 7.289467c1.865448 1.650589 4.4371643 2.4758873 7.715149 2.4758873c3.2779846 0 5.853546 -0.8310547 7.726654 -2.4931602c1.8769836 -1.665947 2.8154602 -4.0900116 2.8154602 -7.272194c0 -3.1821861 -0.93847656 -5.604332 -2.8154602 -7.2664375c-1.8731079 -1.665947 -4.4486694 -2.4989166 -7.726654 -2.4989166z" fill-rule="evenodd"/><path fill="#ff0000" fill-opacity="0.5" d="m314.26862 38.967075c-1.320404 0 -2.5774536 0.29557037 -3.7712097 0.8867111c-1.1899109 0.58730316 -2.1495056 1.376133 -2.8787842 2.3664856l-0.4606018 -2.827114l-5.763336 0l0 18.678543l7.0357666 0l0 -10.96875c0 -0.8252945 0.27059937 -1.5200806 0.8117981 -2.0843506c0.54507446 -0.5681114 1.2532349 -0.8521652 2.1245422 -0.8521652c0.75616455 0 1.3395996 0.24182892 1.7503052 0.72549057c0.41455078 0.48366165 0.6218262 1.1266251 0.6218262 1.9288902l0 11.250885l7.041504 0l0 -12.097294c0 -2.2647629 -0.54312134 -3.9978828 -1.6293945 -5.19936c-1.0862427 -1.2053146 -2.7137146 -1.807972 -4.882416 -1.807972z" fill-rule="evenodd"/><path fill="#ff0000" fill-opacity="0.5" d="m345.6474 38.967075c-2.782837 0 -5.0417175 0.48366165 -6.7766724 1.4509811c-1.7310791 0.9673233 -2.5966492 2.594883 -2.5966492 4.882679c0 1.4164352 0.39920044 2.5200272 1.1975708 3.3107758c0.8022156 0.786911 1.7407227 1.3454247 2.8154602 1.6755447c1.0747375 0.33011627 2.448883 0.6372032 4.122406 0.921257c1.3895264 0.23799515 2.391327 0.46255112 3.0054626 0.6736717c0.61413574 0.2111206 0.9212036 0.55275726 0.9212036 1.0249023c0 0.92126083 -0.97875977 1.3818893 -2.9363403 1.3818893c-0.7331543 0 -1.4240417 -0.15929794 -2.0727234 -0.47790146c-0.64868164 -0.31860352 -0.9845581 -0.87903976 -1.0075989 -1.6813011l0 -0.1439476l-6.5405884 0c0 1.4855309 0.4586792 2.7119598 1.3760681 3.6792831c0.9212036 0.9673233 2.1130066 1.6812973 3.5754395 2.1419296c1.4624329 0.4606285 3.0188904 0.6909447 4.669403 0.6909447c2.874939 0 5.2029114 -0.5066948 6.983917 -1.5200806c1.7810364 -1.0172234 2.6715393 -2.7157936 2.6715393 -5.0957184c0 -1.4624977 -0.41262817 -2.6006393 -1.2378845 -3.4144173c-0.82525635 -0.81378174 -1.7925415 -1.3799706 -2.901825 -1.6985741c-1.1092834 -0.31860352 -2.4891968 -0.59497833 -4.1397095 -0.8291359c-1.3434143 -0.21495819 -2.3106995 -0.41648483 -2.9017944 -0.6045761c-0.5872803 -0.18809128 -0.8809204 -0.506691 -0.8809204 -0.95580673c0 -0.80226135 0.8482971 -1.2033958 2.5448608 -1.2033958c0.637146 0 1.1687622 0.11899567 1.5948486 0.3569908c0.61413574 0.2840538 0.9212036 0.76771545 0.9212036 1.4509811l6.5405884 0c0 -2.0536423 -0.86746216 -3.5698814 -2.602417 -4.5487175c-1.7311096 -0.9788399 -3.8460388 -1.4682579 -6.3448486 -1.4682579z" fill-rule="evenodd"/><path fill="#ff0000" fill-opacity="0.5" d="m370.23218 49.935825l0 1.5891724c0 0.73316956 -0.3493042 1.3473434 -1.0478821 1.8425179c-0.6947632 0.49517822 -1.500824 0.74276733 -2.4181824 0.74276733c-1.6044617 0 -2.4066772 -0.58922195 -2.4066772 -1.7676659c0 -0.7331734 0.47787476 -1.316639 1.4336243 -1.7503967c0.95578 -0.43759537 2.4354553 -0.65639496 4.4391174 -0.65639496zm19.35147 -17.93578c-2.1955566 0 -3.8825378 0.5009346 -5.060913 1.5028038c-1.1783752 1.001873 -1.7675781 2.7062035 -1.7675781 5.112995l0 0.77731323l-2.61969 0l0 4.7732773l2.61969 0l0 13.905266l7.0357666 0l0 -13.905266l3.6099854 0l0 -4.7732773l-3.6099854 0l0 -0.74276733c0 -0.6832695 0.14199829 -1.1669312 0.4260559 -1.450985c0.2840271 -0.2840538 0.8041382 -0.4260826 1.5603027 -0.4260826l1.6236267 0l0 -4.1399117c-0.47210693 -0.16505814 -1.0977783 -0.31092453 -1.8769531 -0.43759918c-0.7753601 -0.13050842 -1.4221191 -0.19576645 -1.9403076 -0.19576645zm-21.971191 6.9670296c-3.1359558 0 -5.5483704 0.52012634 -7.237274 1.5603828c-1.6850281 1.0364151 -2.5275574 2.4394188 -2.5275574 4.2090073c0 0.2111206 0.013427734 0.37617874 0.040283203 0.4951744l6.932129 0l0 -0.1439476c0 -0.56427 0.26486206 -0.9749985 0.79455566 -1.2321815c0.5296936 -0.26102448 1.1611023 -0.3915367 1.8942261 -0.3915367c0.8022461 0 1.456665 0.18809128 1.9633484 0.56427c0.50665283 0.37618256 0.76000977 0.9308548 0.76000977 1.6640282l0 0.91550064c-2.9709167 0 -5.377594 0.1784935 -7.220001 0.5354805c-1.8385925 0.3531494 -3.247284 1.0076294 -4.226074 1.9634361c-0.9787903 0.95196915 -1.4681702 2.335781 -1.4681702 4.151428c0 3.4931107 2.193634 5.239666 6.580902 5.239666c1.4854431 0 2.782837 -0.2111206 3.8921204 -0.63336563c1.1092834 -0.4260826 2.1111145 -0.99419403 3.0054626 -1.7043304c0.33007812 0.73316956 0.93655396 1.3070374 1.819397 1.7216034c0.8866577 0.41072845 2.013214 0.6160927 3.3796692 0.6160927c0.7101135 0 1.3357849 -0.053741455 1.8769836 -0.16122055c0.54119873 -0.107479095 0.9595947 -0.21304321 1.2551575 -0.31668472c0.29556274 -0.107479095 0.47787476 -0.18424988 0.54696655 -0.23031235l0 -4.07082l-1.2724304 0c-0.37615967 0 -0.6582947 -0.12859344 -0.8463745 -0.38577652c-0.18804932 -0.26102448 -0.2821045 -0.59114456 -0.2821045 -0.99035263l0 -7.2894707c0 -2.1457672 -0.89627075 -3.696556 -2.6887817 -4.652363c-1.7925415 -0.95580673 -4.1166687 -1.4337082 -6.9724426 -1.4337082z" fill-rule="evenodd"/><path fill="#ff0000" fill-opacity="0.5" d="m405.07477 43.463974c0.9902954 0 1.7618103 0.282135 2.3145447 0.84640884c0.5565491 0.56427 0.83483887 1.3300667 0.83483887 2.29739l-6.863037 0c0.26101685 -2.0958672 1.4989014 -3.1437988 3.7136536 -3.1437988zm-0.282135 -4.4968987c-3.2779846 0 -5.849701 0.8252945 -7.715149 2.4758835c-1.8616028 1.6505928 -2.7924194 4.080414 -2.7924194 7.2894707c0 3.2781487 0.9557495 5.7252464 2.867279 7.3412895c1.911499 1.6160431 4.600281 2.4240646 8.066345 2.4240646c3.3010254 0 5.8113403 -0.6372032 7.5309143 -1.9116135c1.7234497 -1.2744102 2.585144 -3.0439987 2.585144 -5.3087616l-6.8284607 0c0 0.8252945 -0.2782898 1.4855309 -0.8348694 1.9807091c-0.55270386 0.49517822 -1.4182739 0.74276733 -2.5966492 0.74276733c-1.2973938 0 -2.2473755 -0.34163666 -2.850006 -1.0249023c-0.5987854 -0.6832695 -0.89819336 -1.6966553 -0.89819336 -3.0401573l14.008179 0l0 -1.2033958c0 -3.3011818 -0.90200806 -5.754036 -2.7060547 -7.3585625c-1.8040466 -1.6045303 -4.416046 -2.4067917 -7.8360596 -2.4067917z" fill-rule="evenodd"/><path fill="#ff0000" fill-opacity="0.5" d="m421.98502 33.733166l-1.519989 5.659992l-2.901825 0l0 4.7732773l2.61969 0l0 9.339272c0 1.8194885 0.5585022 3.1073303 1.6754761 3.863533c1.1208191 0.7523613 2.719513 1.1285439 4.796051 1.1285439c0.6602173 0 1.4374695 -0.059497833 2.3318176 -0.1784935c0.89819336 -0.11899567 1.6293945 -0.27253723 2.193634 -0.46063232l0 -4.1399117l-1.9805908 0c-0.75234985 0 -1.2705383 -0.19384766 -1.5545654 -0.58154297c-0.2840271 -0.38769913 -0.4260559 -1.0076294 -0.4260559 -1.8597946l0 -7.1109734l3.9612122 0l0 -4.7732773l-3.9612122 0l0 -5.659992z" fill-rule="evenodd"/><path fill="#ff0000" fill-opacity="0.5" d="m432.31375 39.393158l7.4272766 18.678543c-0.33007812 1.7235222 -1.3798828 2.5852852 -3.1493835 2.5852852l-2.8269653 0l0 4.2090034c1.1783752 0.42224884 2.5333252 0.63336945 4.06485 0.63336945c2.5256348 0 4.488983 -0.6775131 5.889984 -2.0325317c1.4048462 -1.3550186 2.5909119 -3.341488 3.558197 -5.9594l6.649994 -18.11427l-6.932129 0l-3.293335 12.419735l-0.24758911 0l-3.5696716 -12.419735z" fill-rule="evenodd"/></g></svg>